<?xml version="1.0" encoding="utf-8"?>
<!-- Generator: Adobe Illustrator 22.1.0, SVG Export Plug-In . SVG Version: 6.00 Build 0)  -->
<svg version="1.1" id="Calque_1" xmlns="http://www.w3.org/2000/svg" xmlns:xlink="http://www.w3.org/1999/xlink" x="0px" y="0px"
	 viewBox="0 0 236.6 33" style="enable-background:new 0 0 236.6 33;" xml:space="preserve">
<style type="text/css">
	.st0{enable-background:new    ;}
</style>
<title>logo</title>
<g class="st0">
	<path d="M15.7,22.1l-1.6-3.8H5.2l-1.6,3.8H0L8,3.9h3.6l7.9,18.2H15.7z M6.5,15.3h6.4L9.7,7.6L6.5,15.3z"/>
</g>
<g class="st0">
	<path d="M18.2,3.9h3.7l5.4,14.3l5.4-14.3h3.6L29,22.1h-3.6L18.2,3.9z"/>
	<path d="M38.6,3.9h13.3v3h-9.9v4.5h8.8v3h-8.8v4.6h10.2v3H38.6V3.9z"/>
	<path d="M68.5,3.9h3.4v18.2h-3.3L59.2,9.6v12.5h-3.4V3.9h3.3l9.4,12.6V3.9z"/>
	<path d="M80.7,18c0.8,0.8,1.9,1.2,3.3,1.2s2.4-0.4,3.2-1.2c0.8-0.8,1.2-1.9,1.2-3.4V3.9h3.5v10.7c0,1.6-0.3,3-1,4.1
		s-1.6,2.1-2.7,2.7C87,22,85.6,22.4,84,22.4c-1.6,0-3-0.3-4.3-0.9c-1.2-0.6-2.1-1.5-2.8-2.7s-1-2.5-1-4.1V3.9h3.5v10.7
		C79.5,16.1,79.9,17.2,80.7,18z"/>
	<path d="M96,3.9h13.3v3h-9.9v4.5h8.8v3h-8.8v4.6h10.2v3H96V3.9z"/>
</g>
<g class="st0">
	<path d="M120.3,3.9h11.9l0,2.3h-9.3v6h8.4v2.3h-8.4v7.7h-2.5V3.9z"/>
</g>
<g class="st0">
	<path d="M147.9,22.1l-1.9-4.4h-9.6l-1.9,4.4h-2.6L140,3.9h2.6l8.1,18.2H147.9z M137.4,15.4h7.6l-3.8-8.8L137.4,15.4z"/>
</g>
<g class="st0">
	<path d="M161.1,6.5c-0.9-0.3-1.7-0.4-2.5-0.4c-1.1,0-1.9,0.2-2.5,0.6c-0.6,0.4-0.9,1-0.9,1.7c0,0.6,0.2,1.2,0.6,1.6
		c0.4,0.4,0.8,0.7,1.4,1c0.6,0.2,1.3,0.5,2.3,0.8c1.2,0.4,2.2,0.7,3,1.1c0.8,0.3,1.4,0.9,1.9,1.5c0.5,0.7,0.8,1.6,0.8,2.7
		c0,1-0.3,1.9-0.8,2.7c-0.6,0.8-1.4,1.4-2.4,1.8c-1,0.4-2.2,0.6-3.5,0.6c-1.3,0-2.6-0.3-3.9-0.8c-1.3-0.5-2.4-1.2-3.3-2.1l1.1-2.2
		c0.9,0.8,1.8,1.5,2.9,2c1.1,0.5,2.1,0.7,3.2,0.7c1.2,0,2.2-0.2,2.9-0.7c0.7-0.5,1.1-1.1,1.1-1.9c0-0.6-0.2-1.2-0.6-1.6
		c-0.4-0.4-0.9-0.7-1.4-1c-0.6-0.2-1.4-0.5-2.4-0.8c-1.2-0.4-2.2-0.7-3-1.1c-0.8-0.3-1.4-0.9-1.9-1.5s-0.8-1.6-0.8-2.7
		c0-1,0.3-1.8,0.8-2.6c0.5-0.7,1.3-1.3,2.3-1.7c1-0.4,2.1-0.6,3.4-0.6c1.1,0,2.2,0.2,3.2,0.5c1,0.3,2,0.8,2.8,1.3l-1,2.2
		C162.9,7.2,162,6.8,161.1,6.5z"/>
	<path d="M169.1,3.9h2.5V12H182V3.9h2.5v18.2H182v-7.8h-10.4v7.8h-2.5V3.9z"/>
	<path d="M189.8,3.9h2.5v18.2h-2.5V3.9z"/>
	<path d="M210.2,5c1.5,0.8,2.6,1.9,3.5,3.3c0.8,1.4,1.3,3,1.3,4.7c0,1.7-0.4,3.3-1.3,4.7c-0.8,1.4-2,2.6-3.5,3.4s-3.1,1.2-4.8,1.2
		c-1.8,0-3.4-0.4-4.8-1.2s-2.6-2-3.5-3.4c-0.8-1.4-1.3-3-1.3-4.7c0-1.7,0.4-3.3,1.3-4.7c0.8-1.4,2-2.5,3.5-3.3
		c1.5-0.8,3.1-1.2,4.8-1.2C207.2,3.7,208.8,4.2,210.2,5z M201.9,6.9c-1.1,0.6-1.9,1.5-2.6,2.5c-0.6,1.1-1,2.2-1,3.5
		c0,1.3,0.3,2.5,1,3.5c0.6,1.1,1.5,1.9,2.6,2.6c1.1,0.6,2.3,0.9,3.5,0.9s2.4-0.3,3.5-0.9c1.1-0.6,1.9-1.5,2.5-2.6
		c0.6-1.1,0.9-2.3,0.9-3.5c0-1.3-0.3-2.5-0.9-3.5c-0.6-1.1-1.5-1.9-2.5-2.5S206.7,6,205.4,6S203,6.3,201.9,6.9z"/>
	<path d="M231.5,3.9h2.5v18.2h-2.5L221.1,8v14.1h-2.5V3.9h2.5L231.5,18V3.9z"/>
</g>
</svg>
